<svg xmlns="http://www.w3.org/2000/svg" xml:space="preserve" viewBox="0 0 335 45">
  <path fill="#036D71" d="M90.82 14.57c0 5.28-2.29 9.54-6.35 11.83l-1.42-1.94c3.66-2.15 5.34-5.54 5.34-9.89 0-6.99-5.19-11.34-13.14-11.34H62.69V41.8h3.65V20.69h2.52L84.38 41.8h4.29L73.01 20.69h2.38c5.37 0 6.9-2.87 6.9-6.12 0-3.65-2.58-5.6-6.61-5.6h-6.9v8.41h-2.44V6.53h9.34c5.51 0 9.05 3.16 9.05 8.03 0 4.61-2.58 7.72-7.02 8.35l15.81 21.32H83.13L68.78 24.66v19.58h-8.53V.79h15c10 0 15.57 6.06 15.57 13.78zm37.03 21.49v8.18h-26.89V.79h26.48v8.18h-17.96v5.08h-2.44V6.53H125v-3.3h-21.6V41.8h22.02v-3.3h-18.36V17.35h19.72v8.18h-13.63v-2.44h11.2v-3.31H109.5v16.27h18.35zm40.95 4.47a24.4 24.4 0 0 1-13.95 4.32c-12.07 0-19.03-9.86-19.03-21.96v-.81c0-.61.03-1.22.06-1.8H142c.55-7.28 4.99-14.39 12.5-14.39 3.65 0 5.92.87 8.3 2.35l1.68-3.02c-3.02-1.83-6.18-2.64-10.15-2.64-8.67 0-13.95 6.64-15.55 14.39h-2.5C137.99 7.95 144.23.15 154.32.15c5.54 0 9.57 1.48 13.37 4.32l-4.06 7.28c-3.02-2.15-5.02-3.42-9.14-3.42-6.5 0-10.15 6.96-10.15 13.75v.64h-6.09v.17c0 10.18 5.48 19.52 16.59 19.52 3.83 0 7.31-.9 10.73-2.78l-1.62-3.1a17.75 17.75 0 0 1-8.88 2.58c-7.92 0-12.04-6.18-12.97-13.11h2.47c.81 5.57 4 10.67 10.5 10.67 3.77 0 6.9-1.65 9.83-3.6l3.9 7.46zm43.94-18.04c0 12.18-6.9 22.36-19.09 22.36-12.18 0-19.09-10.18-19.09-22.36S181.46.15 193.65.15c.41 0 .81.03 1.22.06v5.74c8.06.75 11.78 8.93 11.78 16.53 0 8.01-4.06 16.62-13 16.62-8.93 0-13-8.62-13-16.62 0-6.35 2.58-13.08 8.12-15.58v2.76c-4.09 2.55-5.68 8.27-5.68 12.82 0 6.09 2.81 14.18 10.56 14.18 7.74 0 10.56-8.09 10.56-14.18s-2.84-14.16-10.56-14.16c-.44 0-.84.03-1.22.09v-5.8C181.79 3.34 177 12.94 177 22.49c0 9.92 5.16 19.93 16.65 19.93 11.49 0 16.65-10.01 16.65-19.93 0-8.35-3.68-16.79-11.78-19.2V.76c9.14 2.35 14.22 11.28 14.22 21.73zm42.54 0c0 13.08-7.95 21.76-19.84 21.76h-13.29V6.53h13.72c8.33 0 13.31 5.95 13.31 15.95 0 9.57-5.37 16.01-13.34 16.01h-7.6V12.25h2.44v23.81h5.16c6.61 0 10.91-5.42 10.91-13.58 0-8.73-3.97-13.52-10.91-13.52h-11.25V41.8h10.85c10.59 0 17.4-7.6 17.4-19.32 0-6.12-1.62-11.11-4.7-14.45-2.9-3.16-7.17-4.81-12.3-4.81h-13.69V.79h13.69c11.7 0 19.44 7.74 19.44 21.7zm36.31 13.57v8.18H264.7V.79h26.48v8.18h-17.96v5.08h-2.44V6.53h17.96v-3.3h-21.61V41.8h22.02v-3.3h-18.36V17.35h19.72v8.18h-13.63v-2.44h11.2v-3.31h-14.85v16.27h18.36zm40.71-21.49c0 5.28-2.29 9.54-6.35 11.83l-1.42-1.94c3.66-2.15 5.34-5.54 5.34-9.89 0-6.99-5.19-11.34-13.14-11.34h-12.56V41.8h3.65V20.69h2.52l15.52 21.12h4.29l-15.66-21.12h2.38c5.37 0 6.9-2.87 6.9-6.12 0-3.65-2.58-5.6-6.61-5.6h-6.9v8.41h-2.44V6.53h9.34c5.51 0 9.05 3.16 9.05 8.03 0 4.61-2.58 7.72-7.02 8.35L335 44.24h-10.38l-14.36-19.58v19.58h-8.53V.79h15c10 0 15.57 6.06 15.57 13.78z"/>
  <path fill="#046D71" d="M48.38 22.5v20.44c0 1.14-.92 2.06-2.06 2.06H13.31a2.06 2.06 0 0 1-2.06-2.06V22.5l19.12-2.25 18.01 2.25z"/>
  <path fill="#42C2CD" d="M13.31 0h33.01c1.14 0 2.06.92 2.06 2.06V22.5H11.25V2.06c0-1.14.92-2.06 2.06-2.06z"/>
  <path fill="#1B9BA1" d="M31.5 28.12h11.25v11.25H31.5V28.12z"/>
  <circle cx="37.12" cy="11.25" r="6.75" fill="#1B9BA1"/>
  <circle cx="37.12" cy="11.25" r="3.38" fill="#046D71"/>
  <path fill="#010101" d="M24.94 9H11.25v28.12h13.69c1.14 0 2.06-.92 2.06-2.06v-24C27 9.92 26.08 9 24.94 9z" opacity=".1"/>
  <path fill="#010101" d="M23.82 10.12H11.25v28.12h12.57c1.14 0 2.06-.92 2.06-2.06v-24c0-1.13-.93-2.06-2.06-2.06z" opacity=".2"/>
  <path fill="#010101" d="M23.82 10.12H11.25V36h12.57c1.14 0 2.06-.92 2.06-2.06V12.18c0-1.13-.93-2.06-2.06-2.06z" opacity=".2"/>
  <path fill="#010101" d="M22.69 10.12H11.25V36h11.44c1.14 0 2.06-.92 2.06-2.06V12.18c0-1.13-.92-2.06-2.06-2.06z" opacity=".2"/>
  <linearGradient id="a" x1="4.29" x2="20.44" y1="398.52" y2="426.48" gradientTransform="translate(0 -390)" gradientUnits="userSpaceOnUse">
    <stop offset="0" stop-color="#098f92"/>
    <stop offset=".5" stop-color="#04858a"/>
    <stop offset="1" stop-color="#036d71"/>
  </linearGradient>
  <path fill="url(#a)" d="M2.06 10.12h20.62c1.14 0 2.06.92 2.06 2.06V32.8c0 1.14-.92 2.06-2.06 2.06H2.06A2.03 2.03 0 0 1 0 32.82V12.18c0-1.13.92-2.06 2.06-2.06z"/>
  <path fill="#FFF" d="M16.55 17.98h-5.81v3.66h5.41v2.17h-5.41v5.4H8.12V15.79h8.44l-.01 2.19z"/>
</svg>